/* XPM */
static char * mol_xpm[] = {
"32 32 200 2",
"  	c None",
". 	c #437589",
"+ 	c #016CB3",
"@ 	c #266F98",
"# 	c #129FFF",
"$ 	c #0099FF",
"% 	c #0094F5",
"& 	c #226992",
"* 	c #738A85",
"= 	c #B0DEFB",
"- 	c #0877BD",
"; 	c #A2A98F",
"> 	c #2D74A0",
", 	c #8CD0FF",
"' 	c #027AC9",
") 	c #508824",
"! 	c #68994A",
"~ 	c #208CD4",
"{ 	c #20A4FF",
"] 	c #42A300",
"^ 	c #4A9A2C",
"/ 	c #176697",
"( 	c #54A91A",
"_ 	c #79945D",
": 	c #CE7E67",
"< 	c #C5493E",
"[ 	c #3B3A5F",
"} 	c #098DDF",
"| 	c #39787B",
"1 	c #29616C",
"2 	c #10547D",
"3 	c #002742",
"4 	c #004A7C",
"5 	c #0086DD",
"6 	c #0095F9",
"7 	c #526C78",
"8 	c #7C815C",
"9 	c #8E4136",
"0 	c #FE0000",
"a 	c #F50000",
"b 	c #840204",
"c 	c #967C0A",
"d 	c #FFCC00",
"e 	c #FCB300",
"f 	c #E68C00",
"g 	c #CE9500",
"h 	c #B38B01",
"i 	c #1C5C7A",
"j 	c #0066BD",
"k 	c #972821",
"l 	c #CE0000",
"m 	c #E40000",
"n 	c #BA0000",
"o 	c #6D2300",
"p 	c #FEC300",
"q 	c #FFBB00",
"r 	c #E5B900",
"s 	c #6D6426",
"t 	c #0085EB",
"u 	c #295875",
"v 	c #B20907",
"w 	c #FC3838",
"x 	c #780000",
"y 	c #DDB302",
"z 	c #B99400",
"A 	c #005EBB",
"B 	c #996653",
"C 	c #AC0203",
"D 	c #5A233A",
"E 	c #3B3558",
"F 	c #900000",
"G 	c #BE9900",
"H 	c #AA8700",
"I 	c #58562B",
"J 	c #008DEA",
"K 	c #006FD5",
"L 	c #38607E",
"M 	c #1B5B81",
"N 	c #008BE5",
"O 	c #321D30",
"P 	c #710000",
"Q 	c #D9AE00",
"R 	c #B59200",
"S 	c #4F3F01",
"T 	c #4D522C",
"U 	c #006AAE",
"V 	c #007BE1",
"W 	c #00509F",
"X 	c #D4D4AB",
"Y 	c #3F1625",
"Z 	c #DA0000",
"` 	c #D20000",
" .	c #592100",
"..	c #A08403",
"+.	c #4F6742",
"@.	c #055D94",
"#.	c #0087E0",
"$.	c #0066CB",
"%.	c #889283",
"&.	c #0363A2",
"*.	c #004E82",
"=.	c #5A192A",
"-.	c #EC0000",
";.	c #9C0306",
">.	c #2D2B47",
",.	c #08609A",
"'.	c #008DF2",
").	c #416881",
"!.	c #0181D5",
"~.	c #0C568E",
"{.	c #433355",
"].	c #144E88",
"^.	c #6F8987",
"/.	c #1B6B99",
"(.	c #007DD1",
"_.	c #034D97",
":.	c #A7A683",
"<.	c #8B6907",
"[.	c #6E5925",
"}.	c #1E5471",
"|.	c #0090EF",
"1.	c #0056AB",
"2.	c #FE9A00",
"3.	c #EB8F00",
"4.	c #BAB7B0",
"5.	c #FFFFFF",
"6.	c #ECECEC",
"7.	c #CCCCCC",
"8.	c #D1CFCE",
"9.	c #DBDAD9",
"0.	c #C2B092",
"a.	c #CBC8C5",
"b.	c #93A2AE",
"c.	c #0058B1",
"d.	c #A89950",
"e.	c #9F7431",
"f.	c #907D30",
"g.	c #AF8013",
"h.	c #B2A798",
"i.	c #B5A990",
"j.	c #C37F01",
"k.	c #0052A3",
"l.	c #A19B6E",
"m.	c #FBA300",
"n.	c #A1927C",
"o.	c #B5B5B6",
"p.	c #715922",
"q.	c #02478C",
"r.	c #CA8B00",
"s.	c #FA9700",
"t.	c #9D9D9D",
"u.	c #9E9882",
"v.	c #E0A700",
"w.	c #E2B600",
"x.	c #9B7302",
"y.	c #2D5B82",
"z.	c #9B822A",
"A.	c #9F9993",
"B.	c #9D9167",
"C.	c #C38A00",
"D.	c #0068CE",
"E.	c #96947A",
"F.	c #EA9C00",
"G.	c #967A50",
"H.	c #96895D",
"I.	c #8B630D",
"J.	c #004D99",
"K.	c #806922",
"L.	c #BB7303",
"M.	c #978F6D",
"N.	c #374446",
"O.	c #0064C7",
"P.	c #A4A4A5",
"Q.	c #AC7C05",
"R.	c #8B6425",
"S.	c #999793",
"T.	c #1E456C",
"U.	c #888888",
"V.	c #725529",
"W.	c #C29D00",
"X.	c #474534",
"Y.	c #8A7314",
"Z.	c #919193",
"`.	c #F4AF00",
" +	c #A26D00",
".+	c #907400",
"++	c #EEBF00",
"@+	c #A57305",
"#+	c #003E7B",
"$+	c #475A6C",
"%+	c #BDBDBD",
"&+	c #645E48",
"*+	c #D5AC00",
"=+	c #DEA100",
"-+	c #514B43",
";+	c #88710F",
">+	c #EFB000",
",+	c #725F41",
"'+	c #796937",
")+	c #AA7300",
"                                                                ",
"                            . + + @                             ",
"                          . # $ $ $ % &                         ",
"                        * = # $ $ $ $ $ - ;                     ",
"                        > , $ $ $ $ $ $ $ '                     ",
"                ) !     ~ { $ $ $ $ $ $ $ $ -                   ",
"                ] ^     % $ $ $ $ $ $ % $ $ $ /                 ",
"                ( _ : < [ ' } | 1 2 3 4 5 $ $ 6 7               ",
"                8 9 0 0 a b c d d e f g h i $ $ j               ",
"            k l m l n a 0 m o d d p q d r s $ $ t u             ",
"          v w 0 0 0 0 a 0 0 x y d d d z z i $ $ 6 A             ",
"        B C D E n 0 0 0 0 0 F G d d z H I J $ $ $ K L           ",
"        M t N O n 0 0 0 0 a P Q d R S T 4 U 6 $ $ V W X         ",
"        + N Y Z 0 0 0 0 0 `  ...+.@.#.$ $ $ $ $ $ t $.%.        ",
"        &.*.=.n a 0 0 -.;.>.,.J $ $ $ $ $ $ $ $ $ '.$.).        ",
"        & $ $ !.~.{.E &.J $ $ $ $ $ $ $ $ $ $ $ $ 6 $.].        ",
"          ^./.(.$ $ $ 6 $ $ $ $ $ $ $ $ $ $ $ $ $ $ $._.        ",
"          :.:.<.[.}.@.U + ' (.!.5 5 5 !.!.|.$ $ $ $ $.1.        ",
"          2.3.2.f 4.5.6.6.7.7.8.9.4.0.a.b.$ $ $ $ $ $.c.        ",
"        d.2.2.2.e.5.5.5.5.f.g.h.i.y d j.u $ $ $ $ % $.k.        ",
"        l.m.2.2.n.5.5.5.o.r d 2.e d d q p.+ + (.$ '.$.q.        ",
"          r.2.s.t.5.5.5.u.d d d d d d d e v.w.x.5 V $.y.        ",
"          z.2.2.A.5.5.5.B.d d d d d d d d d d C.(.$.D.*         ",
"          E.F.2.G.5.5.5.H.d d d d d d d d d d I.K $.J.          ",
"            K.2.L.8.5.5.M.p p d d d d d d d p N.$.O.7           ",
"            P.Q.s.R.6.5.S.p p e d d d d d d r.J.$.T.            ",
"              U.r.s.V.9.7.W.d 2.q d d d d p X.$.T.              ",
"                n.Y.7 U.Z.Y.d `. +.+++d d @+#+$+                ",
"                        %+&+d d d d *+d =+-+t.                  ",
"                          o.;+*+y d d >+,+                      ",
"                                Z.'+)+,+                        ",
"                                                                "};
